<svg width="30" height="30" viewBox="0 0 30 30" fill="none" xmlns="http://www.w3.org/2000/svg">
<path d="M13.173 12.0152C13.1341 11.8984 13.1185 11.7751 13.1273 11.6523C13.136 11.5295 13.1688 11.4096 13.2239 11.2994C13.279 11.1893 13.3552 11.0911 13.4482 11.0104C13.5412 10.9298 13.6492 10.8682 13.766 10.8293L15.1723 10.3605C15.3132 10.3136 15.4633 10.3007 15.6101 10.3232C15.757 10.3456 15.8964 10.4025 16.0169 10.4894C16.1374 10.5763 16.2356 10.6905 16.3033 10.8228C16.371 10.955 16.4063 11.1014 16.4062 11.25V15.9375C16.4062 16.1861 16.3075 16.4246 16.1317 16.6004C15.9558 16.7762 15.7174 16.875 15.4688 16.875C15.2201 16.875 14.9817 16.7762 14.8058 16.6004C14.63 16.4246 14.5312 16.1861 14.5312 15.9375V12.5508L14.359 12.6082C14.2422 12.6471 14.1188 12.6627 13.996 12.654C13.8732 12.6453 13.7533 12.6124 13.6432 12.5574C13.5331 12.5023 13.4349 12.4261 13.3542 12.3331C13.2735 12.24 13.212 12.132 13.173 12.0152ZM29.0625 24.375C29.0625 24.6236 28.9637 24.8621 28.7879 25.0379C28.6121 25.2137 28.3736 25.3125 28.125 25.3125H1.875C1.62636 25.3125 1.3879 25.2137 1.21209 25.0379C1.03627 24.8621 0.9375 24.6236 0.9375 24.375C0.9375 24.1264 1.03627 23.8879 1.21209 23.7121C1.3879 23.5363 1.62636 23.4375 1.875 23.4375H2.8125V12.1875C2.8125 11.6902 3.01004 11.2133 3.36167 10.8617C3.71331 10.51 4.19022 10.3125 4.6875 10.3125H9.375V6.5625C9.375 6.06522 9.57254 5.58831 9.92418 5.23667C10.2758 4.88504 10.7527 4.6875 11.25 4.6875H18.75C19.2473 4.6875 19.7242 4.88504 20.0758 5.23667C20.4275 5.58831 20.625 6.06522 20.625 6.5625V15H25.3125C25.8098 15 26.2867 15.1975 26.6383 15.5492C26.99 15.9008 27.1875 16.3777 27.1875 16.875V23.4375H28.125C28.3736 23.4375 28.6121 23.5363 28.7879 23.7121C28.9637 23.8879 29.0625 24.1264 29.0625 24.375ZM20.625 16.875V23.4375H25.3125V16.875H20.625ZM11.25 23.4375H18.75V6.5625H11.25V23.4375ZM4.6875 23.4375H9.375V12.1875H4.6875V23.4375Z" fill="#228BE6"/>
</svg>
